<svg xmlns="http://www.w3.org/2000/svg" width="319.006" height="319.007" viewBox="0 0 319.006 319.007">
  <title>JAP_see_more</title>
  <g>
    <circle cx="159.503" cy="159.504" r="159.477" transform="translate(-66.069 159.503) rotate(-45)" fill="#00aeef"/>
    <path d="M117.76,144.651a18.161,18.161,0,0,0,6.4-1.511,13.386,13.386,0,0,0,5.075-4,15.542,15.542,0,0,0,2.9-7.062,14.953,14.953,0,0,0,0-5.989,11.362,11.362,0,0,0-2.219-4.585,19.1,19.1,0,0,0-4.1-3.719,50.573,50.573,0,0,0-5.649-3.324q-2-1.056-3.587-1.831a22.511,22.511,0,0,1-2.66-1.493,5.875,5.875,0,0,1-1.577-1.441,2.154,2.154,0,0,1-.337-1.68,1.938,1.938,0,0,1,1.384-1.658,6.318,6.318,0,0,1,2.933-.045,15.138,15.138,0,0,1,4.348,1.508,39.366,39.366,0,0,1,3.863,2.268,37.989,37.989,0,0,1,3.849,2.935l7.684-9.986q-1.494-1.11-3.381-2.394a47.554,47.554,0,0,0-4.106-2.488A42.161,42.161,0,0,0,123.93,96a26.464,26.464,0,0,0-5.1-1.431,22.349,22.349,0,0,0-7.054-.155A18.17,18.17,0,0,0,105.45,96.5a14.792,14.792,0,0,0-4.9,4.418,16.553,16.553,0,0,0-2.726,6.847,14.509,14.509,0,0,0-.116,4.841,10.427,10.427,0,0,0,1.575,4.048A15.2,15.2,0,0,0,102.6,120.2a36.183,36.183,0,0,0,5.118,3.336q2.053,1.139,3.9,2.029t3.258,1.7a7.975,7.975,0,0,1,2.134,1.681,2.233,2.233,0,0,1,.546,1.893,1.808,1.808,0,0,1-1.126,1.386,5.82,5.82,0,0,1-3.143.044,20.053,20.053,0,0,1-5.492-1.816,35.9,35.9,0,0,1-4.628-2.721,40.707,40.707,0,0,1-4.517-3.546l-7.805,10.669a34.468,34.468,0,0,0,4.338,3.163,49.479,49.479,0,0,0,5.016,2.718,47.785,47.785,0,0,0,5.364,2.146,38.2,38.2,0,0,0,5.393,1.376A29.277,29.277,0,0,0,117.76,144.651Zm62.459-.762-21.251-3.756,1.353-7.653L177.95,135.6l1.908-10.8-17.628-3.116,1.207-6.833,20.636,3.647,2.053-11.615-33.959-6-8.576,48.513,34.575,6.112Zm48.99,8.659-21.25-3.756,1.353-7.653,17.628,3.116,1.909-10.8-17.629-3.115,1.208-6.834,20.635,3.648,2.053-11.616-33.959-6-8.575,48.513,34.574,6.111ZM75.137,185.47l-6.42-24.67-14.554-2.572-8.575,48.513L58.912,209.1l4.517-25.555,4.954,19.408,7.107,1.256L86.8,187.672,82.28,213.227,95.6,215.582l8.575-48.513-14.486-2.56Zm80.064-1.7a24.97,24.97,0,0,0-6.73-6.968,23.707,23.707,0,0,0-9.67-3.893,24.624,24.624,0,0,0-10.3.258,25.544,25.544,0,0,0-8.812,4.009,24.871,24.871,0,0,0-6.542,6.912,24.188,24.188,0,0,0-3.475,8.9,24.79,24.79,0,0,0,.158,9.47,25.587,25.587,0,0,0,3.593,8.774,25.2,25.2,0,0,0,6.737,6.933,23.69,23.69,0,0,0,9.669,3.894,24.273,24.273,0,0,0,10.305-.293,25.6,25.6,0,0,0,8.783-4.049,25.267,25.267,0,0,0,6.5-6.884,23.939,23.939,0,0,0,3.469-8.863,25.063,25.063,0,0,0-.136-9.4A25.539,25.539,0,0,0,155.2,183.768ZM145.41,199.3a17.746,17.746,0,0,1-1.483,4.6,12.82,12.82,0,0,1-2.712,3.784,10.255,10.255,0,0,1-3.97,2.328,11.863,11.863,0,0,1-9.948-1.723,10.472,10.472,0,0,1-2.943-3.48,12.567,12.567,0,0,1-1.331-4.428,16.72,16.72,0,0,1,.156-4.869,17.3,17.3,0,0,1,1.476-4.566,12.487,12.487,0,0,1,2.74-3.743,10.353,10.353,0,0,1,3.964-2.294,10.7,10.7,0,0,1,5.147-.218,10.831,10.831,0,0,1,4.7,1.923,10.7,10.7,0,0,1,2.989,3.418,11.889,11.889,0,0,1,1.371,4.4A16.829,16.829,0,0,1,145.41,199.3Zm60.632-8.766a17.311,17.311,0,0,0-4.482-4.738,14.976,14.976,0,0,0-6.3-2.629l-22.275-3.937-8.575,48.513,13.324,2.355,2.633-14.895,4.988.881,5.908,16.405,15.032,2.658L199.2,215.5a16.32,16.32,0,0,0,6.181-5.073,17.524,17.524,0,0,0,3.24-7.566,16.42,16.42,0,0,0-.149-6.332A18.135,18.135,0,0,0,206.042,190.535Zm-10.952,9.937a6.2,6.2,0,0,1-1.735,3.639,2.994,2.994,0,0,1-2.531.962l-8.4-1.485,1.836-10.386,8.063,1.425a3.5,3.5,0,0,1,2.224,1.767A5.581,5.581,0,0,1,195.09,200.472Zm60.022,5.254,2.052-11.616-33.958-6-8.576,48.513,34.574,6.111,2.054-11.616-21.251-3.756,1.353-7.652,17.629,3.116,1.908-10.8-17.629-3.116,1.208-6.833Z" fill="#fff" fill-rule="evenodd"/>
  </g>
</svg>
